<svg width="173" height="147" viewBox="0 0 173 147" fill="none" xmlns="http://www.w3.org/2000/svg">
<path d="M123.753 89.6941C123.758 95.5132 122.539 101.269 120.174 106.593C117.809 111.917 114.349 116.692 110.018 120.611C108.813 121.702 107.547 122.724 106.224 123.672C104.527 124.887 102.741 125.975 100.88 126.926H100.86C100.464 127.133 100.061 127.329 99.6544 127.52C99.4691 127.61 99.287 127.694 99.0985 127.778C97.9217 128.314 96.7145 128.795 95.477 129.221C94.5018 129.544 93.5005 129.867 92.4895 130.132C86.6576 131.673 80.5616 131.958 74.6098 130.968C73.9044 130.852 73.2087 130.719 72.5163 130.568L71.9311 130.435C70.1647 130.025 68.4272 129.501 66.7297 128.866C65.7436 128.498 64.7771 128.095 63.83 127.656C63.4626 127.484 63.0953 127.31 62.7344 127.129C62.4874 127.007 62.2436 126.881 61.9997 126.755C55.3852 123.305 49.8127 118.171 45.8529 111.879C41.8931 105.587 39.6883 98.3624 39.4643 90.9458C39.2402 83.5291 41.005 76.1865 44.5778 69.67C48.1507 63.1534 53.4032 57.6969 59.7976 53.8594C66.192 50.0218 73.4985 47.9411 80.9689 47.8301C88.4393 47.7192 95.8051 49.5821 102.312 53.228C108.819 56.874 114.234 62.172 118.001 68.5796C121.769 74.9872 123.754 82.274 123.753 89.6941Z" fill="url(#paint0_linear_74_206)"/>
<path d="M92.6455 92.7224C95.3307 95.4667 103.152 106.147 103.152 106.147L98.3475 113.143L94.0271 99.2441L92.6455 92.7224Z" fill="url(#paint1_linear_74_206)"/>
<path d="M100.861 126.948C100.464 127.155 100.061 127.352 99.6545 127.542C99.4692 127.633 99.2872 127.717 99.0986 127.801C97.9218 128.337 96.7147 128.818 95.4772 129.244C94.5019 129.567 93.5007 129.89 92.4897 130.154C86.6578 131.695 80.5618 131.98 74.61 130.991C73.9045 130.874 73.2088 130.742 72.5164 130.59C69.9808 132.327 67.6401 133.796 66.0895 134.465L66.2163 133.389L66.7429 128.892L67.962 118.428L72.7927 113.789L61.9316 114.625C61.9316 114.625 63.0727 98.9019 67.5264 95.6668C71.98 92.4318 76.6515 89.5325 76.6515 89.5325C77.2088 89.8975 77.8227 90.1691 78.4687 90.3365C80.0135 90.7605 81.6191 90.9232 83.2182 90.8175C85.1232 90.7303 87.0282 88.9708 87.1192 88.8804C87.1192 88.8804 90.11 89.4712 92.6457 92.7353C93.9103 94.4155 94.8183 96.3333 95.3146 98.3724C95.9388 100.758 97.0474 106.331 98.3087 113.062C99.1344 117.395 100.002 122.199 100.861 126.948Z" fill="url(#paint2_linear_74_206)"/>
<path d="M103.153 106.16L107.788 111.555L124.091 95.4827L124.709 92.1928L127.96 89.3872L126.513 93.6651V99.2376C126.513 99.2376 113.939 119.481 110.474 120.524C106.42 121.747 98.3545 113.137 98.3545 113.137L103.153 106.16Z" fill="url(#paint3_linear_74_206)"/>
<path d="M86.2285 113.537L90.0093 122.577L94.8953 120.491L91.3128 111.645L86.2285 113.537Z" fill="#7E57C2"/>
<path d="M91.4947 119.377C90.8868 119.875 89.9798 119.758 88.855 119.816C87.3438 119.856 85.8944 120.42 84.7589 121.411C83.2473 122.674 79.0212 125.977 74.7951 128.992C74.0279 129.538 73.2606 130.077 72.5195 130.606C69.9838 132.343 67.6432 133.812 66.0925 134.481C65.6848 134.682 65.2446 134.809 64.7922 134.858C62.6206 134.913 62.1557 130.393 62.0225 126.787C61.9802 125.589 61.9704 124.495 61.9477 123.704C61.8567 120.54 61.9477 114.664 61.9477 114.664L72.8088 113.824L71.658 121.295L71.4564 122.616V122.625L74.7073 121.431L74.8081 121.395L86.3486 117.137L87.1451 115.771L87.6522 117.062H87.7009L92.6422 116.417C92.6422 116.417 92.7268 118.373 91.4947 119.377Z" fill="url(#paint4_linear_74_206)"/>
<path d="M89.002 72.2597C88.7192 71.4913 88.4754 70.9683 88.4039 70.8133V70.7746C88.4039 70.7746 88.1536 71.388 86.2681 71.2395C84.3826 71.091 83.7584 70.1611 83.7584 70.1611C83.7584 70.1611 84.3501 72.1758 82.1037 73.0378C79.9419 73.8708 79.0902 73.3316 79.0317 73.2928C79.1454 73.4155 80.8359 75.2106 79.7144 76.6344C78.5538 78.1099 75.9434 77.8193 75.9434 77.8193V77.8387C76.2719 78.5775 76.6397 79.2985 77.0454 79.9986C77.26 80.3666 77.4713 80.7056 77.6956 81.022V81.0446C78.2713 81.9748 79.0487 82.7656 79.9712 83.3595C79.5657 85.7222 78.4013 87.8911 76.6521 89.5422C77.2405 89.8472 77.8474 90.1157 78.4693 90.3461C79.6818 90.8014 81.3105 91.2534 82.7637 91.1275C84.4474 90.9487 86.0032 90.1519 87.1263 88.8933L86.3819 86.0554L85.7122 83.4983C91.7653 81.9648 90.1008 75.2946 89.002 72.2597ZM85.3741 83.592L85.4814 83.5662L85.6537 83.5177C85.4029 83.6254 85.138 83.6972 84.867 83.7308C85.0067 83.6953 85.1498 83.6565 85.2993 83.6113L85.3741 83.592Z" fill="url(#paint5_linear_74_206)"/>
<path d="M92.6464 70.6906C90.1497 72.9699 89.0704 72.3275 89.0022 72.2661V72.2597C88.7193 71.4913 88.4755 70.9682 88.4073 70.8133L88.391 70.7745C88.391 70.7745 88.1374 71.3879 86.252 71.2394C84.3665 71.0909 83.7455 70.1611 83.7455 70.1611C83.7455 70.1611 84.3372 72.1757 82.0909 73.0377C79.9258 73.8707 79.0741 73.3315 79.0188 73.2928C79.1326 73.4123 80.823 75.2073 79.7015 76.6311C78.5409 78.1066 75.9305 77.8192 75.9305 77.8192V77.8354C76.2589 78.5754 76.6268 79.2974 77.0325 79.9985C77.2493 80.3644 77.466 80.7056 77.6827 81.022V81.0446C77.6827 81.0446 76.792 82.7848 75.2023 82.7493C73.6126 82.7138 73.5769 81.135 73.5769 81.135C73.5769 81.135 72.4521 83.1496 68.9769 81.2092C65.5018 79.2689 67.8196 76.4568 67.8196 76.4568C67.8196 76.4568 65.3555 74.5842 65.3555 71.7786C65.3555 68.973 69.1915 66.8389 69.1915 66.8389C69.1915 66.8389 67.8196 63.5813 70.1342 61.7862C72.4488 59.9911 75.9272 61.2083 75.9272 61.2083C75.9272 61.2083 75.859 57.0402 79.4024 57.108C82.9458 57.1758 83.7488 59.3293 83.7488 59.3293C83.7488 59.3293 86.9346 56.882 90.088 59.1872C93.2413 61.4924 91.9442 65.512 91.9442 65.512C91.9442 65.512 95.2503 68.3176 92.6464 70.6906Z" fill="url(#paint6_linear_74_206)"/>
<path opacity="0.15" d="M86.4081 86.0458C84.8965 85.5712 82.208 83.7599 82.208 83.7599C83.269 83.8713 84.341 83.8146 85.3841 83.592L85.4914 83.5662L85.6994 83.5049H85.7287L86.4081 86.0458Z" fill="black"/>
<path opacity="0.15" d="M74.2595 104.132L72.7934 113.818L71.6426 121.289L68.9639 123.5L74.7926 121.398C74.7926 121.398 73.281 117.111 74.2595 104.132Z" fill="black"/>
<path opacity="0.15" d="M72.5098 130.59C73.2022 130.742 73.8979 130.874 74.6033 130.99C74.6391 130.329 74.7041 129.66 74.7951 128.992L72.5098 130.59Z" fill="black"/>
<g filter="url(#filter0_d_74_206)">
<path d="M58.4208 10H41.0385C38.6398 10 36.6953 11.9312 36.6953 14.3134V31.5765C36.6953 33.9587 38.6398 35.8899 41.0385 35.8899H58.4208C60.8194 35.8899 62.7639 33.9587 62.7639 31.5765V14.3134C62.7639 11.9312 60.8194 10 58.4208 10Z" fill="#56CCF2"/>
</g>
<rect x="42.9443" y="23.2424" width="14.0071" height="7.43592" rx="3.71796" fill="white"/>
<path d="M45.7939 23.2426C45.7939 23.2426 45.1741 15.0696 49.9456 15.0696C54.717 15.0696 54.3733 23.2504 54.3733 23.2504" stroke="white" stroke-width="1.9"/>
<g filter="url(#filter1_d_74_206)">
<path d="M148.316 75.2695H130.934C128.535 75.2695 126.591 77.2007 126.591 79.5829V96.846C126.591 99.2283 128.535 101.159 130.934 101.159H148.316C150.715 101.159 152.659 99.2283 152.659 96.846V79.5829C152.659 77.2007 150.715 75.2695 148.316 75.2695Z" fill="#F2C94C"/>
</g>
<g filter="url(#filter2_d_74_206)">
<path d="M32.3524 75.2695H14.9701C12.5714 75.2695 10.627 77.2007 10.627 79.5829V96.846C10.627 99.2282 12.5714 101.159 14.9701 101.159H32.3524C34.7511 101.159 36.6955 99.2282 36.6955 96.846V79.5829C36.6955 77.2007 34.7511 75.2695 32.3524 75.2695Z" fill="#F58A8A"/>
</g>
<path d="M39.9395 135.625C38.1962 135.627 36.4894 136.124 35.0177 137.058C33.546 137.992 32.3701 139.325 31.627 140.902C30.8838 139.325 29.7079 137.992 28.2362 137.058C26.7645 136.124 25.0577 135.627 23.3145 135.625H18.502V136.5C18.502 141.566 22.6234 145.688 27.6895 145.688H35.5645C40.6305 145.688 44.752 141.566 44.752 136.5V135.625H39.9395ZM27.6895 143.938C23.8842 143.938 20.7374 141.065 20.3031 137.375H23.3145C27.1197 137.375 30.2665 140.247 30.7008 143.938H27.6895ZM35.5645 143.938H32.5531C32.9874 140.247 36.1342 137.375 39.9395 137.375H42.9508C42.5165 141.065 39.3697 143.938 35.5645 143.938Z" fill="white"/>
<path d="M26.8819 133.37C27.0474 134.354 27.5168 135.262 28.2243 135.966L28.4806 136.222H28.843C29.8408 136.225 30.8145 135.915 31.6273 135.336C32.44 135.915 33.4137 136.225 34.4115 136.222H34.7739L35.0302 135.966C35.7377 135.262 36.2072 134.355 36.3727 133.371C37.3566 133.205 38.2641 132.736 38.9677 132.028L39.224 131.772V131.41C39.2268 130.412 38.9171 129.438 38.3383 128.625C38.9171 127.812 39.2269 126.839 39.2242 125.841V125.478L38.968 125.222C38.2643 124.515 37.3569 124.045 36.3729 123.88C36.2074 122.896 35.738 121.988 35.0305 121.285L34.7741 121.028H34.4117C33.4138 121.025 32.4401 121.335 31.6273 121.914C30.8145 121.335 29.8408 121.025 28.843 121.028H28.4806L28.2243 121.284C27.5168 121.988 27.0474 122.895 26.8819 123.879C25.8979 124.045 24.9904 124.514 24.2868 125.222L24.0305 125.478V125.841C24.0277 126.838 24.3374 127.812 24.9162 128.625C24.3374 129.438 24.0276 130.411 24.0303 131.409V131.772L24.2866 132.028C24.9902 132.736 25.8978 133.205 26.8819 133.37ZM26.6775 128.006C26.1923 127.524 25.884 126.892 25.8025 126.213C26.3405 125.79 27.0054 125.561 27.6898 125.563H28.5648V124.688C28.5628 124.003 28.7918 123.338 29.2147 122.801C29.894 122.882 30.5261 123.19 31.0084 123.676L31.6273 124.294L32.2459 123.675C32.7283 123.19 33.3603 122.882 34.0397 122.8C34.4627 123.338 34.6918 124.003 34.6898 124.688V125.563H35.5648C36.249 125.561 36.9139 125.79 37.4518 126.212C37.3704 126.892 37.0621 127.524 36.5768 128.006L35.9585 128.625L36.5772 129.244C37.0625 129.726 37.3708 130.358 37.4522 131.038C36.9142 131.461 36.2492 131.69 35.5648 131.688H34.6898V132.563C34.6917 133.247 34.4627 133.912 34.0399 134.45C33.3605 134.368 32.7285 134.06 32.2461 133.575L31.6273 132.956L31.0085 133.575C30.5262 134.06 29.8941 134.368 29.2148 134.45C28.7918 133.912 28.5628 133.247 28.5648 132.563V131.688H27.6898C27.0055 131.69 26.3406 131.461 25.8027 131.038C25.8841 130.358 26.1924 129.726 26.6777 129.244L27.296 128.625L26.6775 128.006Z" fill="white"/>
<g filter="url(#filter3_d_74_206)">
<path d="M119.801 10H102.418C100.02 10 98.0752 11.9312 98.0752 14.3134V31.5765C98.0752 33.9587 100.02 35.8899 102.418 35.8899H119.801C122.199 35.8899 124.144 33.9587 124.144 31.5765V14.3134C124.144 11.9312 122.199 10 119.801 10Z" fill="#6FCF97"/>
</g>
<path d="M115.262 13.802C112.529 14.6552 109.601 14.6552 106.867 13.802C106.564 14.5149 105.68 16.756 105.68 18.8534C105.68 21.7368 106.607 29.803 106.607 29.803C106.607 29.803 108.516 31.5062 111.066 31.5452C113.613 31.5014 115.522 29.7981 115.522 29.7981C115.522 29.7981 116.452 21.7271 116.452 18.8485C116.452 16.756 115.566 14.5149 115.262 13.802Z" fill="white"/>
<defs>
<filter id="filter0_d_74_206" x="26.6953" y="0" width="56.0684" height="55.8899" filterUnits="userSpaceOnUse" color-interpolation-filters="sRGB">
<feFlood flood-opacity="0" result="BackgroundImageFix"/>
<feColorMatrix in="SourceAlpha" type="matrix" values="0 0 0 0 0 0 0 0 0 0 0 0 0 0 0 0 0 0 127 0" result="hardAlpha"/>
<feOffset dx="5" dy="5"/>
<feGaussianBlur stdDeviation="7.5"/>
<feColorMatrix type="matrix" values="0 0 0 0 0 0 0 0 0 0 0 0 0 0 0 0 0 0 0.15 0"/>
<feBlend mode="normal" in2="BackgroundImageFix" result="effect1_dropShadow_74_206"/>
<feBlend mode="normal" in="SourceGraphic" in2="effect1_dropShadow_74_206" result="shape"/>
</filter>
<filter id="filter1_d_74_206" x="116.591" y="65.2695" width="56.0684" height="55.8899" filterUnits="userSpaceOnUse" color-interpolation-filters="sRGB">
<feFlood flood-opacity="0" result="BackgroundImageFix"/>
<feColorMatrix in="SourceAlpha" type="matrix" values="0 0 0 0 0 0 0 0 0 0 0 0 0 0 0 0 0 0 127 0" result="hardAlpha"/>
<feOffset dx="5" dy="5"/>
<feGaussianBlur stdDeviation="7.5"/>
<feColorMatrix type="matrix" values="0 0 0 0 0 0 0 0 0 0 0 0 0 0 0 0 0 0 0.15 0"/>
<feBlend mode="normal" in2="BackgroundImageFix" result="effect1_dropShadow_74_206"/>
<feBlend mode="normal" in="SourceGraphic" in2="effect1_dropShadow_74_206" result="shape"/>
</filter>
<filter id="filter2_d_74_206" x="0.626953" y="65.2695" width="56.0684" height="55.8899" filterUnits="userSpaceOnUse" color-interpolation-filters="sRGB">
<feFlood flood-opacity="0" result="BackgroundImageFix"/>
<feColorMatrix in="SourceAlpha" type="matrix" values="0 0 0 0 0 0 0 0 0 0 0 0 0 0 0 0 0 0 127 0" result="hardAlpha"/>
<feOffset dx="5" dy="5"/>
<feGaussianBlur stdDeviation="7.5"/>
<feColorMatrix type="matrix" values="0 0 0 0 0 0 0 0 0 0 0 0 0 0 0 0 0 0 0.15 0"/>
<feBlend mode="normal" in2="BackgroundImageFix" result="effect1_dropShadow_74_206"/>
<feBlend mode="normal" in="SourceGraphic" in2="effect1_dropShadow_74_206" result="shape"/>
</filter>
<filter id="filter3_d_74_206" x="88.0752" y="0" width="56.0684" height="55.8899" filterUnits="userSpaceOnUse" color-interpolation-filters="sRGB">
<feFlood flood-opacity="0" result="BackgroundImageFix"/>
<feColorMatrix in="SourceAlpha" type="matrix" values="0 0 0 0 0 0 0 0 0 0 0 0 0 0 0 0 0 0 127 0" result="hardAlpha"/>
<feOffset dx="5" dy="5"/>
<feGaussianBlur stdDeviation="7.5"/>
<feColorMatrix type="matrix" values="0 0 0 0 0 0 0 0 0 0 0 0 0 0 0 0 0 0 0.15 0"/>
<feBlend mode="normal" in2="BackgroundImageFix" result="effect1_dropShadow_74_206"/>
<feBlend mode="normal" in="SourceGraphic" in2="effect1_dropShadow_74_206" result="shape"/>
</filter>
<linearGradient id="paint0_linear_74_206" x1="81.7721" y1="52.3715" x2="80.3501" y2="134.884" gradientUnits="userSpaceOnUse">
<stop stop-color="white" stop-opacity="0"/>
<stop offset="1" stop-color="#64B5F6" stop-opacity="0.6"/>
</linearGradient>
<linearGradient id="paint1_linear_74_206" x1="89.4629" y1="89.9491" x2="100.964" y2="110.299" gradientUnits="userSpaceOnUse">
<stop stop-color="#E57373"/>
<stop offset="1" stop-color="#AD1457"/>
</linearGradient>
<linearGradient id="paint2_linear_74_206" x1="17836.9" y1="25220.8" x2="16625.3" y2="31241.7" gradientUnits="userSpaceOnUse">
<stop stop-color="#E57373"/>
<stop offset="1" stop-color="#AD1457"/>
</linearGradient>
<linearGradient id="paint3_linear_74_206" x1="132.371" y1="97.4102" x2="100.983" y2="115.719" gradientUnits="userSpaceOnUse">
<stop stop-color="#FFF8E1"/>
<stop offset="1" stop-color="#FFCC80"/>
</linearGradient>
<linearGradient id="paint4_linear_74_206" x1="13725.1" y1="14147.3" x2="12032.7" y2="12998.2" gradientUnits="userSpaceOnUse">
<stop stop-color="#FFF8E1"/>
<stop offset="1" stop-color="#FFCC80"/>
</linearGradient>
<linearGradient id="paint5_linear_74_206" x1="92.1846" y1="75.5475" x2="75.0486" y2="82.6532" gradientUnits="userSpaceOnUse">
<stop stop-color="#FFF8E1"/>
<stop offset="1" stop-color="#FFCC80"/>
</linearGradient>
<linearGradient id="paint6_linear_74_206" x1="88.2447" y1="56.9853" x2="68.3262" y2="84.0846" gradientUnits="userSpaceOnUse">
<stop stop-color="#FFB74D"/>
<stop offset="1" stop-color="#F4511E"/>
</linearGradient>
</defs>
</svg>
