<svg width="29" height="20" viewBox="0 0 29 20" fill="none" xmlns="http://www.w3.org/2000/svg">
<path d="M4.35 8.57143C5.94953 8.57143 7.25 7.29018 7.25 5.71429C7.25 4.13839 5.94953 2.85714 4.35 2.85714C2.75047 2.85714 1.45 4.13839 1.45 5.71429C1.45 7.29018 2.75047 8.57143 4.35 8.57143ZM24.65 8.57143C26.2495 8.57143 27.55 7.29018 27.55 5.71429C27.55 4.13839 26.2495 2.85714 24.65 2.85714C23.0505 2.85714 21.75 4.13839 21.75 5.71429C21.75 7.29018 23.0505 8.57143 24.65 8.57143ZM26.1 10H23.2C22.4025 10 21.682 10.317 21.1564 10.8304C22.9825 11.817 24.2784 13.5982 24.5594 15.7143H27.55C28.352 15.7143 29 15.0759 29 14.2857V12.8571C29 11.2812 27.6995 10 26.1 10ZM14.5 10C17.3048 10 19.575 7.76339 19.575 5C19.575 2.23661 17.3048 0 14.5 0C11.6952 0 9.425 2.23661 9.425 5C9.425 7.76339 11.6952 10 14.5 10ZM17.98 11.4286H17.6039C16.6614 11.875 15.6147 12.1429 14.5 12.1429C13.3853 12.1429 12.3431 11.875 11.3961 11.4286H11.02C8.13813 11.4286 5.8 13.7321 5.8 16.5714V17.8571C5.8 19.0402 6.77422 20 7.975 20H21.025C22.2258 20 23.2 19.0402 23.2 17.8571V16.5714C23.2 13.7321 20.8619 11.4286 17.98 11.4286ZM7.84359 10.8304C7.31797 10.317 6.5975 10 5.8 10H2.9C1.30047 10 0 11.2812 0 12.8571V14.2857C0 15.0759 0.647969 15.7143 1.45 15.7143H4.43609C4.72156 13.5982 6.0175 11.817 7.84359 10.8304Z" fill="white"/>
</svg>
