<svg width="40" height="40" viewBox="0 0 40 40" fill="none" xmlns="http://www.w3.org/2000/svg">
<rect x="-12" y="-12" width="64" height="64" rx="32" fill="#E3E2FD"/>
<path d="M31.6667 5.00008H24.7C24 3.06675 22.1667 1.66675 20 1.66675C17.8333 1.66675 16 3.06675 15.3 5.00008H8.33333C6.5 5.00008 5 6.50008 5 8.33341V31.6667C5 33.5001 6.5 35.0001 8.33333 35.0001H31.6667C33.5 35.0001 35 33.5001 35 31.6667V8.33341C35 6.50008 33.5 5.00008 31.6667 5.00008ZM20 5.00008C20.9167 5.00008 21.6667 5.75008 21.6667 6.66675C21.6667 7.58341 20.9167 8.33341 20 8.33341C19.0833 8.33341 18.3333 7.58341 18.3333 6.66675C18.3333 5.75008 19.0833 5.00008 20 5.00008ZM16.6667 28.3334L10 21.6667L12.35 19.3167L16.6667 23.6167L27.65 12.6334L30 15.0001L16.6667 28.3334Z" fill="#491CB5"/>
</svg>
