<svg width="129" height="85" viewBox="0 0 129 85" fill="none" xmlns="http://www.w3.org/2000/svg">
<path d="M128.083 42.4146C128.079 50.1007 125.976 57.6373 122.005 64.1986C118.034 70.7598 112.348 76.0925 105.57 79.6123C105.173 79.8219 104.77 80.0219 104.364 80.2154C104.181 80.3058 104.002 80.3896 103.816 80.4735C102.658 81.0089 101.47 81.4896 100.252 81.9153C99.2919 82.254 98.3064 82.5605 97.3113 82.825C87.9126 85.3482 77.9341 84.4729 69.109 80.3509C68.7475 80.18 68.3859 80.0058 68.0307 79.8251C61.4234 76.4933 55.8183 71.4434 51.7947 65.1971C47.7711 58.9509 45.4749 51.7349 45.1434 44.2947C44.8118 36.8546 46.4569 29.4601 49.9088 22.8753C53.3606 16.2905 58.4939 10.7543 64.7783 6.83867C71.0627 2.92302 78.2703 0.76996 85.6563 0.601954C93.0424 0.433949 100.339 2.25709 106.792 5.88301C113.245 9.50893 118.621 14.8061 122.364 21.2272C126.107 27.6483 128.081 34.9605 128.083 42.4082V42.4146Z" fill="url(#paint0_linear_74_258)"/>
<path d="M70.3281 68.2325L65.7461 61.0168C65.7461 61.0168 78.4394 46.2242 79.7096 45.3501C79.7096 45.3501 73.307 56.1784 70.3281 68.2325Z" fill="url(#paint1_linear_74_258)"/>
<path d="M65.7468 61.0168L57.1076 68.7583L41.2146 61.0168L29.0557 61.6878C29.0557 61.6878 36.6294 64.2683 38.7604 64.1618L40.8946 64.0554C40.8946 64.0554 53.9462 76.7417 56.9476 77.7093C59.9489 78.677 69.8072 71.0904 69.8072 71.0904L70.38 68.2551L65.7468 61.0168Z" fill="url(#paint2_linear_74_258)"/>
<path d="M89.5846 43.5985C88.384 44.1844 87.0931 44.5597 85.7673 44.7081C84.2347 44.9403 81.9053 44.0823 81.9053 44.0823C83.6651 42.6856 83.2555 39.3923 83.2555 39.3923L83.2939 39.3729C85.1722 39.2278 86.7432 38.1536 87.8407 37.115C87.444 39.9342 89.5846 43.5985 89.5846 43.5985Z" fill="url(#paint3_linear_74_258)"/>
<path d="M89.5844 33.1089V35.0442C89.0842 35.7961 88.5002 36.4877 87.8437 37.1054C86.7462 38.1473 85.1752 39.2214 83.2969 39.3633C82.4438 39.429 81.5868 39.3023 80.7884 38.9924C75.6688 37.057 79.2685 26.8157 79.2685 26.8157C80.894 22.6482 88.2533 24.6642 88.2533 24.6642C89.2388 25.848 89.4276 29.1543 89.3892 29.4768C89.2252 29.93 89.0105 30.3629 88.7493 30.7671C88.7493 30.7671 90.1475 29.4381 90.6275 30.3219C91.1074 31.2058 89.5844 33.1089 89.5844 33.1089Z" fill="url(#paint4_linear_74_258)"/>
<path d="M89.5838 35.0507V33.1153C89.5838 33.1153 91.1037 31.2284 90.6237 30.3381C90.1438 29.4478 88.7455 30.7832 88.7455 30.7832C89.0067 30.379 89.2214 29.9462 89.3854 29.493C89.4238 29.1704 89.2639 26.0513 88.2496 24.6804C88.2496 24.6804 80.8902 22.6644 79.2647 26.8319C79.2647 26.8319 77.1593 26.2932 75.3451 23.7675C72.3789 19.6355 75.921 19.1291 79.4311 19.9258C83.69 20.8935 87.9584 17.7195 92.8379 20.9451C97.7175 24.1707 93.3435 31.5025 89.5838 35.0507Z" fill="#262F72"/>
<path d="M100.652 59.1814C102.841 65.7487 104.463 73.3515 105.57 79.6124C105.174 79.822 104.77 80.022 104.364 80.2155C104.182 80.3059 104.002 80.3897 103.817 80.4736C102.659 81.0091 101.47 81.4897 100.252 81.9154C99.2925 82.2541 98.3069 82.5606 97.3118 82.8251C87.9131 85.3483 77.9346 84.473 69.1096 80.351C68.748 80.1801 68.3864 80.0059 68.0312 79.8253C68.6712 76.5126 69.4327 72.6193 70.3254 68.2357C70.6497 66.6465 70.9899 64.9929 71.3462 63.2747C73.1796 54.472 75.8098 49.6788 77.9824 47.0822L78.0048 47.0564C78.4175 46.5627 78.8644 46.0992 79.3422 45.6693C79.3556 45.6537 79.3706 45.6397 79.387 45.6274C79.4958 45.5306 79.6046 45.4403 79.707 45.3532C81.0157 44.2791 81.9052 44.0823 81.9052 44.0823L81.9852 44.1114H82.03C82.725 44.3877 83.4535 44.5689 84.1962 44.6501H84.321H84.3402C84.8145 44.6958 85.2917 44.7034 85.7673 44.6726H85.7961C87.1167 44.5878 88.403 44.2135 89.5653 43.5759C90.9283 44.0304 92.212 44.6976 93.3698 45.5532C96.6783 48.0015 103.343 56.9783 103.343 56.9783L100.652 59.1814Z" fill="url(#paint5_linear_74_258)"/>
<path d="M112.84 71.4388C112.821 72.3355 112.011 74.1547 110.827 76.361C109.157 77.5759 107.399 78.6627 105.567 79.6124C105.17 79.8221 104.767 80.0221 104.361 80.2156C104.178 80.306 103.999 80.3898 103.814 80.4737C102.655 81.0091 101.467 81.4898 100.249 81.9155L103.34 71.9839L95.3408 63.5167L100.649 59.1815L103.34 56.9849C103.34 56.9849 112.923 67.9713 112.84 71.4388Z" fill="url(#paint6_linear_74_258)"/>
<path fill-rule="evenodd" clip-rule="evenodd" d="M33.1717 69.6558L0.0820312 67.7998V50.3379L33.1717 52.1939V69.6558Z" fill="#8F97B9"/>
<path fill-rule="evenodd" clip-rule="evenodd" d="M33.1717 52.2149L0.0820312 50.3317L30.3166 39.8799L63.4062 41.7632L33.1717 52.2149Z" fill="#E5E8F5"/>
<path fill-rule="evenodd" clip-rule="evenodd" d="M63.4121 55.6564L33.1877 69.6271L33.1748 52.2151L63.4031 41.6853L63.4121 55.6564Z" fill="#BBC0D6"/>
<defs>
<linearGradient id="paint0_linear_74_258" x1="86.7625" y1="5.13334" x2="85.3203" y2="87.5726" gradientUnits="userSpaceOnUse">
<stop stop-color="white" stop-opacity="0"/>
<stop offset="1" stop-color="#64B5F6" stop-opacity="0.6"/>
</linearGradient>
<linearGradient id="paint1_linear_74_258" x1="73.7358" y1="43.8147" x2="71.2975" y2="66.1478" gradientUnits="userSpaceOnUse">
<stop stop-color="#42A5F5"/>
<stop offset="1" stop-color="#1565C0"/>
</linearGradient>
<linearGradient id="paint2_linear_74_258" x1="46.0461" y1="67.3326" x2="72.6111" y2="70.825" gradientUnits="userSpaceOnUse">
<stop stop-color="#FFE082"/>
<stop offset="1" stop-color="#FFA726"/>
</linearGradient>
<linearGradient id="paint3_linear_74_258" x1="5974.32" y1="1613.01" x2="5976.22" y2="1467.99" gradientUnits="userSpaceOnUse">
<stop stop-color="#FFE082"/>
<stop offset="1" stop-color="#FFA726"/>
</linearGradient>
<linearGradient id="paint4_linear_74_258" x1="9503.66" y1="2583.37" x2="10006.2" y2="2583.37" gradientUnits="userSpaceOnUse">
<stop stop-color="#FFE082"/>
<stop offset="1" stop-color="#FFA726"/>
</linearGradient>
<linearGradient id="paint5_linear_74_258" x1="27222.3" y1="9571.5" x2="30960.5" y2="13164.5" gradientUnits="userSpaceOnUse">
<stop stop-color="#42A5F5"/>
<stop offset="1" stop-color="#1565C0"/>
</linearGradient>
<linearGradient id="paint6_linear_74_258" x1="14587.4" y1="7773.28" x2="14331.8" y2="6177.28" gradientUnits="userSpaceOnUse">
<stop stop-color="#FFE082"/>
<stop offset="1" stop-color="#FFA726"/>
</linearGradient>
</defs>
</svg>
