<svg width="29" height="28" viewBox="0 0 29 28" fill="none" xmlns="http://www.w3.org/2000/svg">
<path d="M28.1359 15.75H15.4863L23.9106 24.3923C24.2326 24.7226 24.7625 24.7494 25.0936 24.4295C27.1566 22.4356 28.5757 19.7477 28.992 16.7261C29.0635 16.2088 28.645 15.75 28.1359 15.75ZM27.292 12.2062C26.8528 5.67313 21.7639 0.452607 15.3957 0.00197753C14.9095 -0.032476 14.5001 0.388075 14.5001 0.887925V13.1249H26.4289C26.9162 13.1249 27.3256 12.7049 27.292 12.2062ZM11.9413 15.75V2.77302C11.9413 2.25075 11.494 1.82145 10.9902 1.89473C4.63744 2.81568 -0.218449 8.50926 0.00757972 15.3327C0.240005 22.3404 6.12155 28.087 12.9557 27.999C15.6425 27.9645 18.1251 27.0764 20.1662 25.5911C20.5874 25.2848 20.6151 24.6488 20.2499 24.2742L11.9413 15.75Z" fill="#DDE2FF"/>
</svg>
