<svg width="148" height="121" viewBox="0 0 148 121" fill="none" xmlns="http://www.w3.org/2000/svg">
<path fill-rule="evenodd" clip-rule="evenodd" d="M124.591 -8.91759C156.184 -18.8889 180.691 21.141 206.282 43.6288C224.423 59.5701 241.927 76.0811 248.917 100.331C255.828 124.311 252.087 149.327 243.472 172.662C233.82 198.808 220.653 223.237 198.314 237.4C169.843 255.45 135.491 275.085 105.613 260.067C75.3896 244.874 64.9172 203.79 59.995 167.871C55.8661 137.741 71.0104 111.372 81.3564 83.0565C93.5126 49.7871 93.0606 1.03357 124.591 -8.91759Z" fill="#84E8F4"/>
<path opacity="0.2" fill-rule="evenodd" clip-rule="evenodd" d="M109.829 -8.91759C141.423 -18.8889 165.929 21.141 191.52 43.6288C209.662 59.5701 227.166 76.0811 234.155 100.331C241.066 124.311 237.325 149.327 228.71 172.662C219.058 198.808 205.891 223.237 183.552 237.4C155.082 255.45 120.729 275.085 90.8515 260.067C60.6279 244.874 50.1555 203.79 45.2333 167.871C41.1044 137.741 56.2487 111.372 66.5947 83.0565C78.7508 49.7871 78.2989 1.03357 109.829 -8.91759Z" fill="#84E8F4"/>
</svg>
