<svg width="64" height="64" viewBox="0 0 64 64" fill="none" xmlns="http://www.w3.org/2000/svg">
<rect width="64" height="64" rx="32" fill="#E3E2FD"/>
<g clip-path="url(#clip0_2802_3928)">
<path d="M43.6667 17.0001H36.7C36 15.0667 34.1667 13.6667 32 13.6667C29.8333 13.6667 28 15.0667 27.3 17.0001H20.3333C18.5 17.0001 17 18.5001 17 20.3334V43.6667C17 45.5001 18.5 47.0001 20.3333 47.0001H43.6667C45.5 47.0001 47 45.5001 47 43.6667V20.3334C47 18.5001 45.5 17.0001 43.6667 17.0001ZM32 17.0001C32.9167 17.0001 33.6667 17.7501 33.6667 18.6667C33.6667 19.5834 32.9167 20.3334 32 20.3334C31.0833 20.3334 30.3333 19.5834 30.3333 18.6667C30.3333 17.7501 31.0833 17.0001 32 17.0001ZM35.3333 40.3334H23.6667V37.0001H35.3333V40.3334ZM40.3333 33.6667H23.6667V30.3334H40.3333V33.6667ZM40.3333 27.0001H23.6667V23.6667H40.3333V27.0001Z" fill="#491CB5"/>
</g>
<defs>
<clipPath id="clip0_2802_3928">
<rect width="40" height="40" fill="white" transform="translate(12 12)"/>
</clipPath>
</defs>
</svg>
