<svg width="29" height="30" viewBox="0 0 29 30" fill="none" xmlns="http://www.w3.org/2000/svg">
<path d="M28.6296 18.6048L26.0278 17.1169C26.2904 15.7137 26.2904 14.2742 26.0278 12.871L28.6296 11.3831C28.9289 11.2137 29.0632 10.8629 28.9655 10.5363C28.2876 8.38309 27.1332 6.43552 25.6247 4.81455C25.3926 4.56657 25.0139 4.50609 24.7207 4.67544L22.1189 6.16334C21.0257 5.23189 19.7675 4.51214 18.4055 4.04036V1.07062C18.4055 0.731909 18.1673 0.435539 17.8314 0.362959C15.5899 -0.133007 13.2935 -0.108814 11.162 0.362959C10.826 0.435539 10.5878 0.731909 10.5878 1.07062V4.04641C9.23196 4.52423 7.9738 5.24399 6.87444 6.16939L4.27872 4.68149C3.97945 4.51214 3.60689 4.56657 3.3748 4.8206C1.86624 6.43552 0.711905 8.38309 0.0339654 10.5424C-0.0698633 10.869 0.0706108 11.2198 0.369882 11.3891L2.9717 12.877C2.70908 14.2802 2.70908 15.7198 2.9717 17.123L0.369882 18.6109C0.0706108 18.7802 -0.0637557 19.131 0.0339654 19.4576C0.711905 21.6109 1.86624 23.5584 3.3748 25.1794C3.60689 25.4274 3.98556 25.4879 4.27872 25.3185L6.88055 23.8306C7.9738 24.7621 9.23196 25.4818 10.5939 25.9536V28.9294C10.5939 29.2681 10.8321 29.5645 11.1681 29.637C13.4095 30.133 15.706 30.1088 17.8375 29.637C18.1734 29.5645 18.4116 29.2681 18.4116 28.9294V25.9536C19.7675 25.4758 21.0257 24.756 22.125 23.8306L24.7269 25.3185C25.0261 25.4879 25.3987 25.4334 25.6308 25.1794C27.1393 23.5645 28.2937 21.6169 28.9716 19.4576C29.0632 19.125 28.9289 18.7742 28.6296 18.6048ZM14.4967 19.8326C11.8032 19.8326 9.61063 17.6613 9.61063 14.994C9.61063 12.3266 11.8032 10.1553 14.4967 10.1553C17.1901 10.1553 19.3827 12.3266 19.3827 14.994C19.3827 17.6613 17.1901 19.8326 14.4967 19.8326Z" fill="white"/>
</svg>
